<?xml version="1.0" encoding="UTF-8" standalone="no"?>
<!DOCTYPE svg PUBLIC "-//W3C//DTD SVG 1.1//EN"
 "http://www.w3.org/Graphics/SVG/1.1/DTD/svg11.dtd">
<!-- Generated by graphviz version 2.44.0 (20200408.0750)
 -->
<!-- Title: ASTNode Pages: 1 -->
<svg width="1005pt" height="421pt"
 viewBox="0.00 0.00 1005.02 420.70" xmlns="http://www.w3.org/2000/svg" xmlns:xlink="http://www.w3.org/1999/xlink">
<g id="graph0" class="graph" transform="scale(1 1) rotate(0) translate(4 416.7)">
<title>ASTNode</title>
<polygon fill="white" stroke="transparent" points="-4,4 -4,-416.7 1001.02,-416.7 1001.02,4 -4,4"/>
<!-- node75 -->
<g id="node1" class="node">
<title>node75</title>
<ellipse fill="none" stroke="black" cx="489.58" cy="-385.83" rx="28.07" ry="26.74"/>
<text text-anchor="middle" x="489.58" y="-389.63" font-family="Times,serif" font-size="14.00">[75]</text>
<text text-anchor="middle" x="489.58" y="-374.63" font-family="Times,serif" font-size="14.00">start</text>
</g>
<!-- node60 -->
<g id="node2" class="node">
<title>node60</title>
<ellipse fill="none" stroke="black" cx="156.58" cy="-296.09" rx="101.23" ry="26.74"/>
<text text-anchor="middle" x="156.58" y="-299.89" font-family="Times,serif" font-size="14.00">[60]</text>
<text text-anchor="middle" x="156.58" y="-284.89" font-family="Times,serif" font-size="14.00">declaracion_asignacion</text>
</g>
<!-- node75&#45;&gt;node60 -->
<g id="edge4" class="edge">
<title>node75&#45;&gt;node60</title>
<path fill="none" stroke="black" d="M462.61,-377.72C413.93,-364.9 309.65,-337.42 236.4,-318.12"/>
<polygon fill="black" stroke="black" points="237.29,-314.74 226.73,-315.57 235.51,-321.51 237.29,-314.74"/>
</g>
<!-- node64 -->
<g id="node6" class="node">
<title>node64</title>
<ellipse fill="none" stroke="black" cx="414.58" cy="-296.09" rx="101.23" ry="26.74"/>
<text text-anchor="middle" x="414.58" y="-299.89" font-family="Times,serif" font-size="14.00">[64]</text>
<text text-anchor="middle" x="414.58" y="-284.89" font-family="Times,serif" font-size="14.00">declaracion_asignacion</text>
</g>
<!-- node75&#45;&gt;node64 -->
<g id="edge8" class="edge">
<title>node75&#45;&gt;node64</title>
<path fill="none" stroke="black" d="M472.18,-364.48C463.46,-354.28 452.68,-341.67 442.82,-330.13"/>
<polygon fill="black" stroke="black" points="445.33,-327.68 436.17,-322.35 440.01,-332.23 445.33,-327.68"/>
</g>
<!-- node68 -->
<g id="node10" class="node">
<title>node68</title>
<ellipse fill="none" stroke="black" cx="582.58" cy="-296.09" rx="31.64" ry="26.74"/>
<text text-anchor="middle" x="582.58" y="-299.89" font-family="Times,serif" font-size="14.00">[68]</text>
<text text-anchor="middle" x="582.58" y="-284.89" font-family="Times,serif" font-size="14.00">unset</text>
</g>
<!-- node75&#45;&gt;node68 -->
<g id="edge11" class="edge">
<title>node75&#45;&gt;node68</title>
<path fill="none" stroke="black" d="M509.3,-366.22C522.47,-353.8 539.98,-337.28 554.58,-323.5"/>
<polygon fill="black" stroke="black" points="557.04,-325.99 561.92,-316.58 552.24,-320.9 557.04,-325.99"/>
</g>
<!-- node74 -->
<g id="node13" class="node">
<title>node74</title>
<ellipse fill="none" stroke="black" cx="695.58" cy="-296.09" rx="29.9" ry="26.74"/>
<text text-anchor="middle" x="695.58" y="-299.89" font-family="Times,serif" font-size="14.00">[74]</text>
<text text-anchor="middle" x="695.58" y="-284.89" font-family="Times,serif" font-size="14.00">print</text>
</g>
<!-- node75&#45;&gt;node74 -->
<g id="edge17" class="edge">
<title>node75&#45;&gt;node74</title>
<path fill="none" stroke="black" d="M515.25,-373.9C551.6,-358.42 618.21,-330.04 659.51,-312.45"/>
<polygon fill="black" stroke="black" points="661.1,-315.58 668.93,-308.44 658.35,-309.14 661.1,-315.58"/>
</g>
<!-- node61 -->
<g id="node3" class="node">
<title>node61</title>
<ellipse fill="none" stroke="black" cx="27.58" cy="-206.35" rx="27.65" ry="26.74"/>
<text text-anchor="middle" x="27.58" y="-210.15" font-family="Times,serif" font-size="14.00">[61]</text>
<text text-anchor="middle" x="27.58" y="-195.15" font-family="Times,serif" font-size="14.00">$t1</text>
</g>
<!-- node60&#45;&gt;node61 -->
<g id="edge1" class="edge">
<title>node60&#45;&gt;node61</title>
<path fill="none" stroke="black" d="M120.21,-270.85C103.25,-259.5 82.83,-245.74 64.58,-233.22 62.43,-231.75 60.21,-230.22 57.99,-228.68"/>
<polygon fill="black" stroke="black" points="59.65,-225.57 49.44,-222.74 55.66,-231.32 59.65,-225.57"/>
</g>
<!-- node59 -->
<g id="node4" class="node">
<title>node59</title>
<ellipse fill="none" stroke="black" cx="156.58" cy="-206.35" rx="83.38" ry="26.74"/>
<text text-anchor="middle" x="156.58" y="-210.15" font-family="Times,serif" font-size="14.00">[59]</text>
<text text-anchor="middle" x="156.58" y="-195.15" font-family="Times,serif" font-size="14.00">expresion_number</text>
</g>
<!-- node60&#45;&gt;node59 -->
<g id="edge3" class="edge">
<title>node60&#45;&gt;node59</title>
<path fill="none" stroke="black" d="M156.58,-268.77C156.58,-260.8 156.58,-251.91 156.58,-243.42"/>
<polygon fill="black" stroke="black" points="160.08,-243.35 156.58,-233.35 153.08,-243.35 160.08,-243.35"/>
</g>
<!-- node58 -->
<g id="node5" class="node">
<title>node58</title>
<ellipse fill="none" stroke="black" cx="156.58" cy="-116.61" rx="27.65" ry="26.74"/>
<text text-anchor="middle" x="156.58" y="-120.41" font-family="Times,serif" font-size="14.00">[58]</text>
<text text-anchor="middle" x="156.58" y="-105.41" font-family="Times,serif" font-size="14.00">1</text>
</g>
<!-- node59&#45;&gt;node58 -->
<g id="edge2" class="edge">
<title>node59&#45;&gt;node58</title>
<path fill="none" stroke="black" d="M156.58,-179.03C156.58,-171.06 156.58,-162.17 156.58,-153.68"/>
<polygon fill="black" stroke="black" points="160.08,-153.61 156.58,-143.61 153.08,-153.61 160.08,-153.61"/>
</g>
<!-- node65 -->
<g id="node7" class="node">
<title>node65</title>
<ellipse fill="none" stroke="black" cx="285.58" cy="-206.35" rx="27.65" ry="26.74"/>
<text text-anchor="middle" x="285.58" y="-210.15" font-family="Times,serif" font-size="14.00">[65]</text>
<text text-anchor="middle" x="285.58" y="-195.15" font-family="Times,serif" font-size="14.00">$t2</text>
</g>
<!-- node64&#45;&gt;node65 -->
<g id="edge5" class="edge">
<title>node64&#45;&gt;node65</title>
<path fill="none" stroke="black" d="M378.21,-270.85C361.25,-259.5 340.83,-245.74 322.58,-233.22 320.43,-231.75 318.21,-230.22 315.99,-228.68"/>
<polygon fill="black" stroke="black" points="317.65,-225.57 307.44,-222.74 313.66,-231.32 317.65,-225.57"/>
</g>
<!-- node63 -->
<g id="node8" class="node">
<title>node63</title>
<ellipse fill="none" stroke="black" cx="414.58" cy="-206.35" rx="83.38" ry="26.74"/>
<text text-anchor="middle" x="414.58" y="-210.15" font-family="Times,serif" font-size="14.00">[63]</text>
<text text-anchor="middle" x="414.58" y="-195.15" font-family="Times,serif" font-size="14.00">expresion_number</text>
</g>
<!-- node64&#45;&gt;node63 -->
<g id="edge7" class="edge">
<title>node64&#45;&gt;node63</title>
<path fill="none" stroke="black" d="M414.58,-268.77C414.58,-260.8 414.58,-251.91 414.58,-243.42"/>
<polygon fill="black" stroke="black" points="418.08,-243.35 414.58,-233.35 411.08,-243.35 418.08,-243.35"/>
</g>
<!-- node62 -->
<g id="node9" class="node">
<title>node62</title>
<ellipse fill="none" stroke="black" cx="414.58" cy="-116.61" rx="27.65" ry="26.74"/>
<text text-anchor="middle" x="414.58" y="-120.41" font-family="Times,serif" font-size="14.00">[62]</text>
<text text-anchor="middle" x="414.58" y="-105.41" font-family="Times,serif" font-size="14.00">2</text>
</g>
<!-- node63&#45;&gt;node62 -->
<g id="edge6" class="edge">
<title>node63&#45;&gt;node62</title>
<path fill="none" stroke="black" d="M414.58,-179.03C414.58,-171.06 414.58,-162.17 414.58,-153.68"/>
<polygon fill="black" stroke="black" points="418.08,-153.61 414.58,-143.61 411.08,-153.61 418.08,-153.61"/>
</g>
<!-- node67 -->
<g id="node11" class="node">
<title>node67</title>
<ellipse fill="none" stroke="black" cx="599.58" cy="-206.35" rx="83.38" ry="26.74"/>
<text text-anchor="middle" x="599.58" y="-210.15" font-family="Times,serif" font-size="14.00">[67]</text>
<text text-anchor="middle" x="599.58" y="-195.15" font-family="Times,serif" font-size="14.00">expresion_number</text>
</g>
<!-- node68&#45;&gt;node67 -->
<g id="edge10" class="edge">
<title>node68&#45;&gt;node67</title>
<path fill="none" stroke="black" d="M587.59,-269.24C589.16,-261.1 590.93,-251.96 592.62,-243.26"/>
<polygon fill="black" stroke="black" points="596.08,-243.8 594.55,-233.32 589.21,-242.47 596.08,-243.8"/>
</g>
<!-- node66 -->
<g id="node12" class="node">
<title>node66</title>
<ellipse fill="none" stroke="black" cx="599.58" cy="-116.61" rx="27.65" ry="26.74"/>
<text text-anchor="middle" x="599.58" y="-120.41" font-family="Times,serif" font-size="14.00">[66]</text>
<text text-anchor="middle" x="599.58" y="-105.41" font-family="Times,serif" font-size="14.00">$t1</text>
</g>
<!-- node67&#45;&gt;node66 -->
<g id="edge9" class="edge">
<title>node67&#45;&gt;node66</title>
<path fill="none" stroke="black" d="M599.58,-179.03C599.58,-171.06 599.58,-162.17 599.58,-153.68"/>
<polygon fill="black" stroke="black" points="603.08,-153.61 599.58,-143.61 596.08,-153.61 603.08,-153.61"/>
</g>
<!-- node73 -->
<g id="node14" class="node">
<title>node73</title>
<ellipse fill="none" stroke="black" cx="728.58" cy="-206.35" rx="27.65" ry="26.74"/>
<text text-anchor="middle" x="728.58" y="-210.15" font-family="Times,serif" font-size="14.00">[73]</text>
<text text-anchor="middle" x="728.58" y="-195.15" font-family="Times,serif" font-size="14.00">+</text>
</g>
<!-- node74&#45;&gt;node73 -->
<g id="edge16" class="edge">
<title>node74&#45;&gt;node73</title>
<path fill="none" stroke="black" d="M704.95,-270.18C708.35,-261.14 712.25,-250.76 715.89,-241.09"/>
<polygon fill="black" stroke="black" points="719.17,-242.31 719.41,-231.71 712.62,-239.84 719.17,-242.31"/>
</g>
<!-- node70 -->
<g id="node15" class="node">
<title>node70</title>
<ellipse fill="none" stroke="black" cx="728.58" cy="-116.61" rx="83.38" ry="26.74"/>
<text text-anchor="middle" x="728.58" y="-120.41" font-family="Times,serif" font-size="14.00">[70]</text>
<text text-anchor="middle" x="728.58" y="-105.41" font-family="Times,serif" font-size="14.00">expresion_number</text>
</g>
<!-- node73&#45;&gt;node70 -->
<g id="edge13" class="edge">
<title>node73&#45;&gt;node70</title>
<path fill="none" stroke="black" d="M728.58,-179.03C728.58,-171.06 728.58,-162.17 728.58,-153.68"/>
<polygon fill="black" stroke="black" points="732.08,-153.61 728.58,-143.61 725.08,-153.61 732.08,-153.61"/>
</g>
<!-- node72 -->
<g id="node17" class="node">
<title>node72</title>
<ellipse fill="none" stroke="black" cx="913.58" cy="-116.61" rx="83.38" ry="26.74"/>
<text text-anchor="middle" x="913.58" y="-120.41" font-family="Times,serif" font-size="14.00">[72]</text>
<text text-anchor="middle" x="913.58" y="-105.41" font-family="Times,serif" font-size="14.00">expresion_number</text>
</g>
<!-- node73&#45;&gt;node72 -->
<g id="edge15" class="edge">
<title>node73&#45;&gt;node72</title>
<path fill="none" stroke="black" d="M753.14,-193.7C779.94,-180.99 823.69,-160.24 858.74,-143.62"/>
<polygon fill="black" stroke="black" points="860.37,-146.72 867.91,-139.27 857.37,-140.39 860.37,-146.72"/>
</g>
<!-- node69 -->
<g id="node16" class="node">
<title>node69</title>
<ellipse fill="none" stroke="black" cx="728.58" cy="-26.87" rx="27.65" ry="26.74"/>
<text text-anchor="middle" x="728.58" y="-30.67" font-family="Times,serif" font-size="14.00">[69]</text>
<text text-anchor="middle" x="728.58" y="-15.67" font-family="Times,serif" font-size="14.00">1</text>
</g>
<!-- node70&#45;&gt;node69 -->
<g id="edge12" class="edge">
<title>node70&#45;&gt;node69</title>
<path fill="none" stroke="black" d="M728.58,-89.29C728.58,-81.32 728.58,-72.43 728.58,-63.94"/>
<polygon fill="black" stroke="black" points="732.08,-63.87 728.58,-53.87 725.08,-63.87 732.08,-63.87"/>
</g>
<!-- node71 -->
<g id="node18" class="node">
<title>node71</title>
<ellipse fill="none" stroke="black" cx="913.58" cy="-26.87" rx="27.65" ry="26.74"/>
<text text-anchor="middle" x="913.58" y="-30.67" font-family="Times,serif" font-size="14.00">[71]</text>
<text text-anchor="middle" x="913.58" y="-15.67" font-family="Times,serif" font-size="14.00">2</text>
</g>
<!-- node72&#45;&gt;node71 -->
<g id="edge14" class="edge">
<title>node72&#45;&gt;node71</title>
<path fill="none" stroke="black" d="M913.58,-89.29C913.58,-81.32 913.58,-72.43 913.58,-63.94"/>
<polygon fill="black" stroke="black" points="917.08,-63.87 913.58,-53.87 910.08,-63.87 917.08,-63.87"/>
</g>
</g>
</svg>
