<?xml version="1.0" encoding="UTF-8" standalone="no"?>
<!DOCTYPE svg PUBLIC "-//W3C//DTD SVG 1.1//EN"
 "http://www.w3.org/Graphics/SVG/1.1/DTD/svg11.dtd">
<!-- Generated by graphviz version 2.44.0 (20200408.0750)
 -->
<!-- Title: ASTNode Pages: 1 -->
<svg width="1187pt" height="1049pt"
 viewBox="0.00 0.00 1187.10 1048.88" xmlns="http://www.w3.org/2000/svg" xmlns:xlink="http://www.w3.org/1999/xlink">
<g id="graph0" class="graph" transform="scale(1 1) rotate(0) translate(4 1044.88)">
<title>ASTNode</title>
<polygon fill="white" stroke="transparent" points="-4,4 -4,-1044.88 1183.1,-1044.88 1183.1,4 -4,4"/>
<!-- node98 -->
<g id="node1" class="node">
<title>node98</title>
<ellipse fill="none" stroke="black" cx="281.23" cy="-1014.01" rx="27.65" ry="26.74"/>
<text text-anchor="middle" x="281.23" y="-1017.81" font-family="Times,serif" font-size="14.00">[98]</text>
<text text-anchor="middle" x="281.23" y="-1002.81" font-family="Times,serif" font-size="14.00">init</text>
</g>
<!-- node71 -->
<g id="node2" class="node">
<title>node71</title>
<ellipse fill="none" stroke="black" cx="281.23" cy="-924.27" rx="62.45" ry="26.74"/>
<text text-anchor="middle" x="281.23" y="-928.07" font-family="Times,serif" font-size="14.00">[71]</text>
<text text-anchor="middle" x="281.23" y="-913.07" font-family="Times,serif" font-size="14.00">instrucciones</text>
</g>
<!-- node98&#45;&gt;node71 -->
<g id="edge36" class="edge">
<title>node98&#45;&gt;node71</title>
<path fill="none" stroke="black" d="M281.23,-986.69C281.23,-978.72 281.23,-969.83 281.23,-961.34"/>
<polygon fill="black" stroke="black" points="284.73,-961.28 281.23,-951.28 277.73,-961.28 284.73,-961.28"/>
</g>
<!-- node70 -->
<g id="node3" class="node">
<title>node70</title>
<ellipse fill="none" stroke="black" cx="221.23" cy="-834.53" rx="50.82" ry="26.74"/>
<text text-anchor="middle" x="221.23" y="-838.33" font-family="Times,serif" font-size="14.00">[70]</text>
<text text-anchor="middle" x="221.23" y="-823.33" font-family="Times,serif" font-size="14.00">sentencias</text>
</g>
<!-- node71&#45;&gt;node70 -->
<g id="edge10" class="edge">
<title>node71&#45;&gt;node70</title>
<path fill="none" stroke="black" d="M264.19,-898.36C257.87,-889.12 250.59,-878.48 243.85,-868.61"/>
<polygon fill="black" stroke="black" points="246.63,-866.48 238.09,-860.2 240.85,-870.43 246.63,-866.48"/>
</g>
<!-- node97 -->
<g id="node13" class="node">
<title>node97</title>
<ellipse fill="none" stroke="black" cx="366.23" cy="-834.53" rx="50.82" ry="26.74"/>
<text text-anchor="middle" x="366.23" y="-838.33" font-family="Times,serif" font-size="14.00">[97]</text>
<text text-anchor="middle" x="366.23" y="-823.33" font-family="Times,serif" font-size="14.00">sentencias</text>
</g>
<!-- node71&#45;&gt;node97 -->
<g id="edge35" class="edge">
<title>node71&#45;&gt;node97</title>
<path fill="none" stroke="black" d="M304.45,-899.3C314.36,-889.07 326.03,-877.02 336.55,-866.16"/>
<polygon fill="black" stroke="black" points="339.17,-868.49 343.61,-858.87 334.14,-863.62 339.17,-868.49"/>
</g>
<!-- node69 -->
<g id="node4" class="node">
<title>node69</title>
<ellipse fill="none" stroke="black" cx="170.23" cy="-744.79" rx="70.01" ry="26.74"/>
<text text-anchor="middle" x="170.23" y="-748.59" font-family="Times,serif" font-size="14.00">[69]</text>
<text text-anchor="middle" x="170.23" y="-733.59" font-family="Times,serif" font-size="14.00">creacion_struct</text>
</g>
<!-- node70&#45;&gt;node69 -->
<g id="edge9" class="edge">
<title>node70&#45;&gt;node69</title>
<path fill="none" stroke="black" d="M206.75,-808.62C201.57,-799.72 195.64,-789.52 190.09,-779.96"/>
<polygon fill="black" stroke="black" points="192.97,-777.95 184.92,-771.07 186.92,-781.47 192.97,-777.95"/>
</g>
<!-- node68 -->
<g id="node5" class="node">
<title>node68</title>
<ellipse fill="none" stroke="black" cx="88.23" cy="-655.05" rx="33.47" ry="26.74"/>
<text text-anchor="middle" x="88.23" y="-658.85" font-family="Times,serif" font-size="14.00">[68]</text>
<text text-anchor="middle" x="88.23" y="-643.85" font-family="Times,serif" font-size="14.00">punto</text>
</g>
<!-- node69&#45;&gt;node68 -->
<g id="edge1" class="edge">
<title>node69&#45;&gt;node68</title>
<path fill="none" stroke="black" d="M147.38,-719.35C137.3,-708.56 125.37,-695.8 114.88,-684.57"/>
<polygon fill="black" stroke="black" points="117.27,-682 107.88,-677.09 112.16,-686.78 117.27,-682"/>
</g>
<!-- node67 -->
<g id="node6" class="node">
<title>node67</title>
<ellipse fill="none" stroke="black" cx="170.23" cy="-655.05" rx="31.23" ry="26.74"/>
<text text-anchor="middle" x="170.23" y="-658.85" font-family="Times,serif" font-size="14.00">[67]</text>
<text text-anchor="middle" x="170.23" y="-643.85" font-family="Times,serif" font-size="14.00">linstr</text>
</g>
<!-- node69&#45;&gt;node67 -->
<g id="edge8" class="edge">
<title>node69&#45;&gt;node67</title>
<path fill="none" stroke="black" d="M170.23,-717.47C170.23,-709.5 170.23,-700.61 170.23,-692.12"/>
<polygon fill="black" stroke="black" points="173.73,-692.05 170.23,-682.05 166.73,-692.05 173.73,-692.05"/>
</g>
<!-- node65 -->
<g id="node7" class="node">
<title>node65</title>
<ellipse fill="none" stroke="black" cx="163.23" cy="-565.31" rx="93.18" ry="26.74"/>
<text text-anchor="middle" x="163.23" y="-569.11" font-family="Times,serif" font-size="14.00">[65]</text>
<text text-anchor="middle" x="163.23" y="-554.11" font-family="Times,serif" font-size="14.00">declaracion_registros</text>
</g>
<!-- node67&#45;&gt;node65 -->
<g id="edge7" class="edge">
<title>node67&#45;&gt;node65</title>
<path fill="none" stroke="black" d="M168.16,-628.2C167.52,-620.15 166.8,-611.12 166.11,-602.5"/>
<polygon fill="black" stroke="black" points="169.58,-601.97 165.3,-592.28 162.6,-602.53 169.58,-601.97"/>
</g>
<!-- node61 -->
<g id="node8" class="node">
<title>node61</title>
<ellipse fill="none" stroke="black" cx="62.23" cy="-475.57" rx="62.45" ry="26.74"/>
<text text-anchor="middle" x="62.23" y="-479.37" font-family="Times,serif" font-size="14.00">[61]</text>
<text text-anchor="middle" x="62.23" y="-464.37" font-family="Times,serif" font-size="14.00">tipo_variable</text>
</g>
<!-- node65&#45;&gt;node61 -->
<g id="edge3" class="edge">
<title>node65&#45;&gt;node61</title>
<path fill="none" stroke="black" d="M134.82,-539.64C123.05,-529.41 109.28,-517.45 96.91,-506.71"/>
<polygon fill="black" stroke="black" points="98.87,-503.77 89.03,-499.85 94.28,-509.05 98.87,-503.77"/>
</g>
<!-- node64 -->
<g id="node10" class="node">
<title>node64</title>
<ellipse fill="none" stroke="black" cx="186.23" cy="-475.57" rx="43.68" ry="26.74"/>
<text text-anchor="middle" x="186.23" y="-479.37" font-family="Times,serif" font-size="14.00">[64]</text>
<text text-anchor="middle" x="186.23" y="-464.37" font-family="Times,serif" font-size="14.00">lista_ids</text>
</g>
<!-- node65&#45;&gt;node64 -->
<g id="edge6" class="edge">
<title>node65&#45;&gt;node64</title>
<path fill="none" stroke="black" d="M170,-538.46C172.18,-530.16 174.63,-520.82 176.95,-511.96"/>
<polygon fill="black" stroke="black" points="180.35,-512.8 179.5,-502.24 173.58,-511.02 180.35,-512.8"/>
</g>
<!-- node60 -->
<g id="node9" class="node">
<title>node60</title>
<ellipse fill="none" stroke="black" cx="62.23" cy="-385.83" rx="27.65" ry="26.74"/>
<text text-anchor="middle" x="62.23" y="-389.63" font-family="Times,serif" font-size="14.00">[60]</text>
<text text-anchor="middle" x="62.23" y="-374.63" font-family="Times,serif" font-size="14.00">int</text>
</g>
<!-- node61&#45;&gt;node60 -->
<g id="edge2" class="edge">
<title>node61&#45;&gt;node60</title>
<path fill="none" stroke="black" d="M62.23,-448.25C62.23,-440.28 62.23,-431.39 62.23,-422.9"/>
<polygon fill="black" stroke="black" points="65.73,-422.83 62.23,-412.83 58.73,-422.83 65.73,-422.83"/>
</g>
<!-- node63 -->
<g id="node11" class="node">
<title>node63</title>
<ellipse fill="none" stroke="black" cx="186.23" cy="-385.83" rx="75.82" ry="26.74"/>
<text text-anchor="middle" x="186.23" y="-389.63" font-family="Times,serif" font-size="14.00">[63]</text>
<text text-anchor="middle" x="186.23" y="-374.63" font-family="Times,serif" font-size="14.00">tipo_declaracion</text>
</g>
<!-- node64&#45;&gt;node63 -->
<g id="edge5" class="edge">
<title>node64&#45;&gt;node63</title>
<path fill="none" stroke="black" d="M186.23,-448.25C186.23,-440.28 186.23,-431.39 186.23,-422.9"/>
<polygon fill="black" stroke="black" points="189.73,-422.83 186.23,-412.83 182.73,-422.83 189.73,-422.83"/>
</g>
<!-- node62 -->
<g id="node12" class="node">
<title>node62</title>
<ellipse fill="none" stroke="black" cx="186.23" cy="-296.09" rx="27.65" ry="26.74"/>
<text text-anchor="middle" x="186.23" y="-299.89" font-family="Times,serif" font-size="14.00">[62]</text>
<text text-anchor="middle" x="186.23" y="-284.89" font-family="Times,serif" font-size="14.00">x</text>
</g>
<!-- node63&#45;&gt;node62 -->
<g id="edge4" class="edge">
<title>node63&#45;&gt;node62</title>
<path fill="none" stroke="black" d="M186.23,-358.51C186.23,-350.54 186.23,-341.65 186.23,-333.16"/>
<polygon fill="black" stroke="black" points="189.73,-333.09 186.23,-323.09 182.73,-333.09 189.73,-333.09"/>
</g>
<!-- node96 -->
<g id="node14" class="node">
<title>node96</title>
<ellipse fill="none" stroke="black" cx="406.23" cy="-744.79" rx="89.61" ry="26.74"/>
<text text-anchor="middle" x="406.23" y="-748.59" font-family="Times,serif" font-size="14.00">[96]</text>
<text text-anchor="middle" x="406.23" y="-733.59" font-family="Times,serif" font-size="14.00">declaracion_funcion</text>
</g>
<!-- node97&#45;&gt;node96 -->
<g id="edge34" class="edge">
<title>node97&#45;&gt;node96</title>
<path fill="none" stroke="black" d="M377.8,-808.15C381.67,-799.66 386.05,-790.04 390.2,-780.94"/>
<polygon fill="black" stroke="black" points="393.44,-782.27 394.4,-771.72 387.07,-779.37 393.44,-782.27"/>
</g>
<!-- node73 -->
<g id="node15" class="node">
<title>node73</title>
<ellipse fill="none" stroke="black" cx="295.23" cy="-655.05" rx="62.45" ry="26.74"/>
<text text-anchor="middle" x="295.23" y="-658.85" font-family="Times,serif" font-size="14.00">[73]</text>
<text text-anchor="middle" x="295.23" y="-643.85" font-family="Times,serif" font-size="14.00">tipo_variable</text>
</g>
<!-- node96&#45;&gt;node73 -->
<g id="edge12" class="edge">
<title>node96&#45;&gt;node73</title>
<path fill="none" stroke="black" d="M375.31,-719.35C362.01,-708.84 346.35,-696.46 332.42,-685.45"/>
<polygon fill="black" stroke="black" points="334.47,-682.61 324.45,-679.15 330.13,-688.1 334.47,-682.61"/>
</g>
<!-- node95 -->
<g id="node17" class="node">
<title>node95</title>
<ellipse fill="none" stroke="black" cx="406.23" cy="-655.05" rx="31.23" ry="26.74"/>
<text text-anchor="middle" x="406.23" y="-658.85" font-family="Times,serif" font-size="14.00">[95]</text>
<text text-anchor="middle" x="406.23" y="-643.85" font-family="Times,serif" font-size="14.00">main</text>
</g>
<!-- node96&#45;&gt;node95 -->
<g id="edge13" class="edge">
<title>node96&#45;&gt;node95</title>
<path fill="none" stroke="black" d="M406.23,-717.47C406.23,-709.5 406.23,-700.61 406.23,-692.12"/>
<polygon fill="black" stroke="black" points="409.73,-692.05 406.23,-682.05 402.73,-692.05 409.73,-692.05"/>
</g>
<!-- node93 -->
<g id="node18" class="node">
<title>node93</title>
<ellipse fill="none" stroke="black" cx="513.23" cy="-655.05" rx="57.97" ry="26.74"/>
<text text-anchor="middle" x="513.23" y="-658.85" font-family="Times,serif" font-size="14.00">[93]</text>
<text text-anchor="middle" x="513.23" y="-643.85" font-family="Times,serif" font-size="14.00">param_func</text>
</g>
<!-- node96&#45;&gt;node93 -->
<g id="edge14" class="edge">
<title>node96&#45;&gt;node93</title>
<path fill="none" stroke="black" d="M436.03,-719.35C448.83,-708.85 463.9,-696.49 477.31,-685.5"/>
<polygon fill="black" stroke="black" points="479.9,-687.9 485.42,-678.85 475.46,-682.49 479.9,-687.9"/>
</g>
<!-- node94 -->
<g id="node19" class="node">
<title>node94</title>
<ellipse fill="none" stroke="black" cx="620.23" cy="-655.05" rx="31.23" ry="26.74"/>
<text text-anchor="middle" x="620.23" y="-658.85" font-family="Times,serif" font-size="14.00">[94]</text>
<text text-anchor="middle" x="620.23" y="-643.85" font-family="Times,serif" font-size="14.00">linstr</text>
</g>
<!-- node96&#45;&gt;node94 -->
<g id="edge33" class="edge">
<title>node96&#45;&gt;node94</title>
<path fill="none" stroke="black" d="M468.86,-725.42C502.63,-714.56 544.56,-699.49 580.23,-681.92 582.8,-680.65 585.41,-679.25 588,-677.78"/>
<polygon fill="black" stroke="black" points="589.88,-680.74 596.64,-672.58 586.27,-674.74 589.88,-680.74"/>
</g>
<!-- node72 -->
<g id="node16" class="node">
<title>node72</title>
<ellipse fill="none" stroke="black" cx="302.23" cy="-565.31" rx="27.65" ry="26.74"/>
<text text-anchor="middle" x="302.23" y="-569.11" font-family="Times,serif" font-size="14.00">[72]</text>
<text text-anchor="middle" x="302.23" y="-554.11" font-family="Times,serif" font-size="14.00">int</text>
</g>
<!-- node73&#45;&gt;node72 -->
<g id="edge11" class="edge">
<title>node73&#45;&gt;node72</title>
<path fill="none" stroke="black" d="M297.33,-627.73C297.96,-619.76 298.67,-610.87 299.35,-602.38"/>
<polygon fill="black" stroke="black" points="302.84,-602.56 300.15,-592.31 295.87,-602 302.84,-602.56"/>
</g>
<!-- node77 -->
<g id="node20" class="node">
<title>node77</title>
<ellipse fill="none" stroke="black" cx="450.23" cy="-565.31" rx="85.62" ry="26.74"/>
<text text-anchor="middle" x="450.23" y="-569.11" font-family="Times,serif" font-size="14.00">[77]</text>
<text text-anchor="middle" x="450.23" y="-554.11" font-family="Times,serif" font-size="14.00">declaracion_structs</text>
</g>
<!-- node94&#45;&gt;node77 -->
<g id="edge18" class="edge">
<title>node94&#45;&gt;node77</title>
<path fill="none" stroke="black" d="M596,-637.67C590.86,-634.4 585.42,-631.08 580.23,-628.18 557.11,-615.28 530.87,-602.46 508.05,-591.87"/>
<polygon fill="black" stroke="black" points="509.38,-588.63 498.83,-587.62 506.45,-594.98 509.38,-588.63"/>
</g>
<!-- node92 -->
<g id="node24" class="node">
<title>node92</title>
<ellipse fill="none" stroke="black" cx="647.23" cy="-565.31" rx="93.18" ry="26.74"/>
<text text-anchor="middle" x="647.23" y="-569.11" font-family="Times,serif" font-size="14.00">[92]</text>
<text text-anchor="middle" x="647.23" y="-554.11" font-family="Times,serif" font-size="14.00">declaracion_registros</text>
</g>
<!-- node94&#45;&gt;node92 -->
<g id="edge32" class="edge">
<title>node94&#45;&gt;node92</title>
<path fill="none" stroke="black" d="M628.03,-628.67C630.59,-620.36 633.48,-610.97 636.23,-602.04"/>
<polygon fill="black" stroke="black" points="639.65,-602.83 639.25,-592.24 632.96,-600.77 639.65,-602.83"/>
</g>
<!-- node76 -->
<g id="node21" class="node">
<title>node76</title>
<ellipse fill="none" stroke="black" cx="334.23" cy="-475.57" rx="33.47" ry="26.74"/>
<text text-anchor="middle" x="334.23" y="-479.37" font-family="Times,serif" font-size="14.00">[76]</text>
<text text-anchor="middle" x="334.23" y="-464.37" font-family="Times,serif" font-size="14.00">struct</text>
</g>
<!-- node77&#45;&gt;node76 -->
<g id="edge15" class="edge">
<title>node77&#45;&gt;node76</title>
<path fill="none" stroke="black" d="M418.53,-540.34C402.3,-528.06 382.6,-513.16 366.32,-500.85"/>
<polygon fill="black" stroke="black" points="368.24,-497.91 358.16,-494.67 364.02,-503.49 368.24,-497.91"/>
</g>
<!-- node75 -->
<g id="node22" class="node">
<title>node75</title>
<ellipse fill="none" stroke="black" cx="461.23" cy="-475.57" rx="75.82" ry="26.74"/>
<text text-anchor="middle" x="461.23" y="-479.37" font-family="Times,serif" font-size="14.00">[75]</text>
<text text-anchor="middle" x="461.23" y="-464.37" font-family="Times,serif" font-size="14.00">tipo_declaracion</text>
</g>
<!-- node77&#45;&gt;node75 -->
<g id="edge17" class="edge">
<title>node77&#45;&gt;node75</title>
<path fill="none" stroke="black" d="M453.53,-537.99C454.52,-530.02 455.64,-521.13 456.7,-512.64"/>
<polygon fill="black" stroke="black" points="460.19,-512.93 457.97,-502.57 453.25,-512.06 460.19,-512.93"/>
</g>
<!-- node74 -->
<g id="node23" class="node">
<title>node74</title>
<ellipse fill="none" stroke="black" cx="461.23" cy="-385.83" rx="27.65" ry="26.74"/>
<text text-anchor="middle" x="461.23" y="-389.63" font-family="Times,serif" font-size="14.00">[74]</text>
<text text-anchor="middle" x="461.23" y="-374.63" font-family="Times,serif" font-size="14.00">mpt</text>
</g>
<!-- node75&#45;&gt;node74 -->
<g id="edge16" class="edge">
<title>node75&#45;&gt;node74</title>
<path fill="none" stroke="black" d="M461.23,-448.25C461.23,-440.28 461.23,-431.39 461.23,-422.9"/>
<polygon fill="black" stroke="black" points="464.73,-422.83 461.23,-412.83 457.73,-422.83 464.73,-422.83"/>
</g>
<!-- node80 -->
<g id="node25" class="node">
<title>node80</title>
<ellipse fill="none" stroke="black" cx="637.23" cy="-475.57" rx="62.45" ry="26.74"/>
<text text-anchor="middle" x="637.23" y="-479.37" font-family="Times,serif" font-size="14.00">[80]</text>
<text text-anchor="middle" x="637.23" y="-464.37" font-family="Times,serif" font-size="14.00">tipo_variable</text>
</g>
<!-- node92&#45;&gt;node80 -->
<g id="edge20" class="edge">
<title>node92&#45;&gt;node80</title>
<path fill="none" stroke="black" d="M644.23,-537.99C643.32,-530.02 642.3,-521.13 641.34,-512.64"/>
<polygon fill="black" stroke="black" points="644.8,-512.11 640.19,-502.57 637.84,-512.91 644.8,-512.11"/>
</g>
<!-- node91 -->
<g id="node27" class="node">
<title>node91</title>
<ellipse fill="none" stroke="black" cx="761.23" cy="-475.57" rx="43.68" ry="26.74"/>
<text text-anchor="middle" x="761.23" y="-479.37" font-family="Times,serif" font-size="14.00">[91]</text>
<text text-anchor="middle" x="761.23" y="-464.37" font-family="Times,serif" font-size="14.00">lista_ids</text>
</g>
<!-- node92&#45;&gt;node91 -->
<g id="edge31" class="edge">
<title>node92&#45;&gt;node91</title>
<path fill="none" stroke="black" d="M678.98,-539.87C693.77,-528.49 711.39,-514.92 726.53,-503.27"/>
<polygon fill="black" stroke="black" points="728.86,-505.9 734.65,-497.03 724.59,-500.35 728.86,-505.9"/>
</g>
<!-- node79 -->
<g id="node26" class="node">
<title>node79</title>
<ellipse fill="none" stroke="black" cx="636.23" cy="-385.83" rx="27.65" ry="26.74"/>
<text text-anchor="middle" x="636.23" y="-389.63" font-family="Times,serif" font-size="14.00">[79]</text>
<text text-anchor="middle" x="636.23" y="-374.63" font-family="Times,serif" font-size="14.00">int</text>
</g>
<!-- node80&#45;&gt;node79 -->
<g id="edge19" class="edge">
<title>node80&#45;&gt;node79</title>
<path fill="none" stroke="black" d="M636.93,-448.25C636.83,-440.28 636.73,-431.39 636.64,-422.9"/>
<polygon fill="black" stroke="black" points="640.14,-422.79 636.52,-412.83 633.14,-422.87 640.14,-422.79"/>
</g>
<!-- node90 -->
<g id="node28" class="node">
<title>node90</title>
<ellipse fill="none" stroke="black" cx="761.23" cy="-385.83" rx="79.81" ry="26.74"/>
<text text-anchor="middle" x="761.23" y="-389.63" font-family="Times,serif" font-size="14.00">[90]</text>
<text text-anchor="middle" x="761.23" y="-374.63" font-family="Times,serif" font-size="14.00">tipo_declaracion2</text>
</g>
<!-- node91&#45;&gt;node90 -->
<g id="edge30" class="edge">
<title>node91&#45;&gt;node90</title>
<path fill="none" stroke="black" d="M761.23,-448.25C761.23,-440.28 761.23,-431.39 761.23,-422.9"/>
<polygon fill="black" stroke="black" points="764.73,-422.83 761.23,-412.83 757.73,-422.83 764.73,-422.83"/>
</g>
<!-- node89 -->
<g id="node29" class="node">
<title>node89</title>
<ellipse fill="none" stroke="black" cx="643.23" cy="-296.09" rx="28.07" ry="26.74"/>
<text text-anchor="middle" x="643.23" y="-299.89" font-family="Times,serif" font-size="14.00">[89]</text>
<text text-anchor="middle" x="643.23" y="-284.89" font-family="Times,serif" font-size="14.00">hola</text>
</g>
<!-- node90&#45;&gt;node89 -->
<g id="edge21" class="edge">
<title>node90&#45;&gt;node89</title>
<path fill="none" stroke="black" d="M729.29,-361.09C711.81,-348.09 690.29,-332.08 673.14,-319.33"/>
<polygon fill="black" stroke="black" points="675.22,-316.52 665.1,-313.36 671.04,-322.13 675.22,-316.52"/>
</g>
<!-- node82 -->
<g id="node30" class="node">
<title>node82</title>
<ellipse fill="none" stroke="black" cx="761.23" cy="-296.09" rx="72.25" ry="26.74"/>
<text text-anchor="middle" x="761.23" y="-299.89" font-family="Times,serif" font-size="14.00">[82]</text>
<text text-anchor="middle" x="761.23" y="-284.89" font-family="Times,serif" font-size="14.00">tipo_asignacion</text>
</g>
<!-- node90&#45;&gt;node82 -->
<g id="edge23" class="edge">
<title>node90&#45;&gt;node82</title>
<path fill="none" stroke="black" d="M761.23,-358.51C761.23,-350.54 761.23,-341.65 761.23,-333.16"/>
<polygon fill="black" stroke="black" points="764.73,-333.09 761.23,-323.09 757.73,-333.09 764.73,-333.09"/>
</g>
<!-- node88 -->
<g id="node32" class="node">
<title>node88</title>
<ellipse fill="none" stroke="black" cx="884.23" cy="-296.09" rx="27.65" ry="26.74"/>
<text text-anchor="middle" x="884.23" y="-299.89" font-family="Times,serif" font-size="14.00">[88]</text>
<text text-anchor="middle" x="884.23" y="-284.89" font-family="Times,serif" font-size="14.00">+</text>
</g>
<!-- node90&#45;&gt;node88 -->
<g id="edge29" class="edge">
<title>node90&#45;&gt;node88</title>
<path fill="none" stroke="black" d="M794.19,-361.32C812.78,-348.06 835.84,-331.61 853.97,-318.67"/>
<polygon fill="black" stroke="black" points="856.32,-321.29 862.43,-312.64 852.26,-315.6 856.32,-321.29"/>
</g>
<!-- node81 -->
<g id="node31" class="node">
<title>node81</title>
<ellipse fill="none" stroke="black" cx="755.23" cy="-206.35" rx="27.65" ry="26.74"/>
<text text-anchor="middle" x="755.23" y="-210.15" font-family="Times,serif" font-size="14.00">[81]</text>
<text text-anchor="middle" x="755.23" y="-195.15" font-family="Times,serif" font-size="14.00">=</text>
</g>
<!-- node82&#45;&gt;node81 -->
<g id="edge22" class="edge">
<title>node82&#45;&gt;node81</title>
<path fill="none" stroke="black" d="M759.43,-268.77C758.88,-260.8 758.27,-251.91 757.69,-243.42"/>
<polygon fill="black" stroke="black" points="761.18,-243.09 757,-233.35 754.19,-243.57 761.18,-243.09"/>
</g>
<!-- node84 -->
<g id="node33" class="node">
<title>node84</title>
<ellipse fill="none" stroke="black" cx="884.23" cy="-206.35" rx="83.38" ry="26.74"/>
<text text-anchor="middle" x="884.23" y="-210.15" font-family="Times,serif" font-size="14.00">[84]</text>
<text text-anchor="middle" x="884.23" y="-195.15" font-family="Times,serif" font-size="14.00">expresion_number</text>
</g>
<!-- node88&#45;&gt;node84 -->
<g id="edge25" class="edge">
<title>node88&#45;&gt;node84</title>
<path fill="none" stroke="black" d="M884.23,-268.77C884.23,-260.8 884.23,-251.91 884.23,-243.42"/>
<polygon fill="black" stroke="black" points="887.73,-243.35 884.23,-233.35 880.73,-243.35 887.73,-243.35"/>
</g>
<!-- node87 -->
<g id="node35" class="node">
<title>node87</title>
<ellipse fill="none" stroke="black" cx="1082.23" cy="-206.35" rx="96.75" ry="26.74"/>
<text text-anchor="middle" x="1082.23" y="-210.15" font-family="Times,serif" font-size="14.00">[87]</text>
<text text-anchor="middle" x="1082.23" y="-195.15" font-family="Times,serif" font-size="14.00">expresion_callfuncion</text>
</g>
<!-- node88&#45;&gt;node87 -->
<g id="edge28" class="edge">
<title>node88&#45;&gt;node87</title>
<path fill="none" stroke="black" d="M909.3,-283.98C937.7,-271.4 984.94,-250.46 1022.88,-233.65"/>
<polygon fill="black" stroke="black" points="1024.59,-236.72 1032.31,-229.47 1021.75,-230.32 1024.59,-236.72"/>
</g>
<!-- node83 -->
<g id="node34" class="node">
<title>node83</title>
<ellipse fill="none" stroke="black" cx="884.23" cy="-116.61" rx="27.65" ry="26.74"/>
<text text-anchor="middle" x="884.23" y="-120.41" font-family="Times,serif" font-size="14.00">[83]</text>
<text text-anchor="middle" x="884.23" y="-105.41" font-family="Times,serif" font-size="14.00">1</text>
</g>
<!-- node84&#45;&gt;node83 -->
<g id="edge24" class="edge">
<title>node84&#45;&gt;node83</title>
<path fill="none" stroke="black" d="M884.23,-179.03C884.23,-171.06 884.23,-162.17 884.23,-153.68"/>
<polygon fill="black" stroke="black" points="887.73,-153.61 884.23,-143.61 880.73,-153.61 887.73,-153.61"/>
</g>
<!-- node86 -->
<g id="node36" class="node">
<title>node86</title>
<ellipse fill="none" stroke="black" cx="1082.23" cy="-116.61" rx="59.29" ry="26.74"/>
<text text-anchor="middle" x="1082.23" y="-120.41" font-family="Times,serif" font-size="14.00">[86]</text>
<text text-anchor="middle" x="1082.23" y="-105.41" font-family="Times,serif" font-size="14.00">call_funcion</text>
</g>
<!-- node87&#45;&gt;node86 -->
<g id="edge27" class="edge">
<title>node87&#45;&gt;node86</title>
<path fill="none" stroke="black" d="M1082.23,-179.03C1082.23,-171.06 1082.23,-162.17 1082.23,-153.68"/>
<polygon fill="black" stroke="black" points="1085.73,-153.61 1082.23,-143.61 1078.73,-153.61 1085.73,-153.61"/>
</g>
<!-- node85 -->
<g id="node37" class="node">
<title>node85</title>
<ellipse fill="none" stroke="black" cx="1082.23" cy="-26.87" rx="31.64" ry="26.74"/>
<text text-anchor="middle" x="1082.23" y="-30.67" font-family="Times,serif" font-size="14.00">[85]</text>
<text text-anchor="middle" x="1082.23" y="-15.67" font-family="Times,serif" font-size="14.00">scanf</text>
</g>
<!-- node86&#45;&gt;node85 -->
<g id="edge26" class="edge">
<title>node86&#45;&gt;node85</title>
<path fill="none" stroke="black" d="M1082.23,-89.29C1082.23,-81.32 1082.23,-72.43 1082.23,-63.94"/>
<polygon fill="black" stroke="black" points="1085.73,-63.87 1082.23,-53.87 1078.73,-63.87 1085.73,-63.87"/>
</g>
</g>
</svg>
