<?xml version="1.0" encoding="UTF-8" standalone="no"?>
<!DOCTYPE svg PUBLIC "-//W3C//DTD SVG 1.1//EN"
 "http://www.w3.org/Graphics/SVG/1.1/DTD/svg11.dtd">
<!-- Generated by graphviz version 2.44.0 (20200408.0750)
 -->
<!-- Title: ASTNode Pages: 1 -->
<svg width="1651pt" height="421pt"
 viewBox="0.00 0.00 1651.02 420.70" xmlns="http://www.w3.org/2000/svg" xmlns:xlink="http://www.w3.org/1999/xlink">
<g id="graph0" class="graph" transform="scale(1 1) rotate(0) translate(4 416.7)">
<title>ASTNode</title>
<polygon fill="white" stroke="transparent" points="-4,4 -4,-416.7 1647.02,-416.7 1647.02,4 -4,4"/>
<!-- node84 -->
<g id="node1" class="node">
<title>node84</title>
<ellipse fill="none" stroke="black" cx="854.58" cy="-385.83" rx="28.07" ry="26.74"/>
<text text-anchor="middle" x="854.58" y="-389.63" font-family="Times,serif" font-size="14.00">[84]</text>
<text text-anchor="middle" x="854.58" y="-374.63" font-family="Times,serif" font-size="14.00">start</text>
</g>
<!-- node51 -->
<g id="node2" class="node">
<title>node51</title>
<ellipse fill="none" stroke="black" cx="156.58" cy="-296.09" rx="101.23" ry="26.74"/>
<text text-anchor="middle" x="156.58" y="-299.89" font-family="Times,serif" font-size="14.00">[51]</text>
<text text-anchor="middle" x="156.58" y="-284.89" font-family="Times,serif" font-size="14.00">declaracion_asignacion</text>
</g>
<!-- node84&#45;&gt;node51 -->
<g id="edge4" class="edge">
<title>node84&#45;&gt;node51</title>
<path fill="none" stroke="black" d="M826.26,-382.97C741.72,-377.15 483.9,-357.64 272.58,-322.96 261.9,-321.21 250.73,-319.09 239.71,-316.82"/>
<polygon fill="black" stroke="black" points="240.17,-313.34 229.66,-314.71 238.73,-320.19 240.17,-313.34"/>
</g>
<!-- node58 -->
<g id="node6" class="node">
<title>node58</title>
<ellipse fill="none" stroke="black" cx="382.58" cy="-296.09" rx="101.23" ry="26.74"/>
<text text-anchor="middle" x="382.58" y="-299.89" font-family="Times,serif" font-size="14.00">[58]</text>
<text text-anchor="middle" x="382.58" y="-284.89" font-family="Times,serif" font-size="14.00">declaracion_asignacion</text>
</g>
<!-- node84&#45;&gt;node58 -->
<g id="edge11" class="edge">
<title>node84&#45;&gt;node58</title>
<path fill="none" stroke="black" d="M826.77,-380.68C765.94,-371.46 616.61,-348.12 492.58,-322.96 483.68,-321.16 474.41,-319.16 465.19,-317.1"/>
<polygon fill="black" stroke="black" points="465.74,-313.64 455.22,-314.84 464.2,-320.46 465.74,-313.64"/>
</g>
<!-- node62 -->
<g id="node13" class="node">
<title>node62</title>
<ellipse fill="none" stroke="black" cx="602.58" cy="-296.09" rx="101.23" ry="26.74"/>
<text text-anchor="middle" x="602.58" y="-299.89" font-family="Times,serif" font-size="14.00">[62]</text>
<text text-anchor="middle" x="602.58" y="-284.89" font-family="Times,serif" font-size="14.00">declaracion_asignacion</text>
</g>
<!-- node84&#45;&gt;node62 -->
<g id="edge15" class="edge">
<title>node84&#45;&gt;node62</title>
<path fill="none" stroke="black" d="M828.09,-375.61C791.27,-362.79 723.32,-339.13 671.6,-321.12"/>
<polygon fill="black" stroke="black" points="672.74,-317.81 662.15,-317.83 670.44,-324.42 672.74,-317.81"/>
</g>
<!-- node66 -->
<g id="node17" class="node">
<title>node66</title>
<ellipse fill="none" stroke="black" cx="780.58" cy="-296.09" rx="29.9" ry="26.74"/>
<text text-anchor="middle" x="780.58" y="-299.89" font-family="Times,serif" font-size="14.00">[66]</text>
<text text-anchor="middle" x="780.58" y="-284.89" font-family="Times,serif" font-size="14.00">print</text>
</g>
<!-- node84&#45;&gt;node66 -->
<g id="edge18" class="edge">
<title>node84&#45;&gt;node66</title>
<path fill="none" stroke="black" d="M837.04,-364.04C827.43,-352.65 815.38,-338.36 804.88,-325.91"/>
<polygon fill="black" stroke="black" points="807.37,-323.43 798.24,-318.04 802.02,-327.94 807.37,-323.43"/>
</g>
<!-- node72 -->
<g id="node20" class="node">
<title>node72</title>
<ellipse fill="none" stroke="black" cx="929.58" cy="-296.09" rx="101.23" ry="26.74"/>
<text text-anchor="middle" x="929.58" y="-299.89" font-family="Times,serif" font-size="14.00">[72]</text>
<text text-anchor="middle" x="929.58" y="-284.89" font-family="Times,serif" font-size="14.00">declaracion_asignacion</text>
</g>
<!-- node84&#45;&gt;node72 -->
<g id="edge25" class="edge">
<title>node84&#45;&gt;node72</title>
<path fill="none" stroke="black" d="M871.97,-364.48C880.69,-354.28 891.47,-341.67 901.34,-330.13"/>
<polygon fill="black" stroke="black" points="904.15,-332.23 907.98,-322.35 898.83,-327.68 904.15,-332.23"/>
</g>
<!-- node76 -->
<g id="node27" class="node">
<title>node76</title>
<ellipse fill="none" stroke="black" cx="1087.58" cy="-296.09" rx="29.9" ry="26.74"/>
<text text-anchor="middle" x="1087.58" y="-299.89" font-family="Times,serif" font-size="14.00">[76]</text>
<text text-anchor="middle" x="1087.58" y="-284.89" font-family="Times,serif" font-size="14.00">print</text>
</g>
<!-- node84&#45;&gt;node76 -->
<g id="edge28" class="edge">
<title>node84&#45;&gt;node76</title>
<path fill="none" stroke="black" d="M881.46,-377.42C917.95,-367 984.88,-346.64 1039.58,-322.96 1044.34,-320.9 1049.27,-318.53 1054.07,-316.09"/>
<polygon fill="black" stroke="black" points="1055.85,-319.1 1063.07,-311.35 1052.59,-312.91 1055.85,-319.1"/>
</g>
<!-- node79 -->
<g id="node30" class="node">
<title>node79</title>
<ellipse fill="none" stroke="black" cx="1244.58" cy="-296.09" rx="101.23" ry="26.74"/>
<text text-anchor="middle" x="1244.58" y="-299.89" font-family="Times,serif" font-size="14.00">[79]</text>
<text text-anchor="middle" x="1244.58" y="-284.89" font-family="Times,serif" font-size="14.00">declaracion_asignacion</text>
</g>
<!-- node84&#45;&gt;node79 -->
<g id="edge32" class="edge">
<title>node84&#45;&gt;node79</title>
<path fill="none" stroke="black" d="M882,-378.66C938.76,-365.89 1071.18,-336.1 1159.29,-316.28"/>
<polygon fill="black" stroke="black" points="1160.29,-319.64 1169.27,-314.03 1158.75,-312.81 1160.29,-319.64"/>
</g>
<!-- node83 -->
<g id="node34" class="node">
<title>node83</title>
<ellipse fill="none" stroke="black" cx="1476.58" cy="-296.09" rx="29.9" ry="26.74"/>
<text text-anchor="middle" x="1476.58" y="-299.89" font-family="Times,serif" font-size="14.00">[83]</text>
<text text-anchor="middle" x="1476.58" y="-284.89" font-family="Times,serif" font-size="14.00">print</text>
</g>
<!-- node84&#45;&gt;node83 -->
<g id="edge35" class="edge">
<title>node84&#45;&gt;node83</title>
<path fill="none" stroke="black" d="M882.62,-382.21C958.78,-374.92 1175.79,-352.92 1354.58,-322.96 1382.79,-318.23 1414.38,-311.49 1438.34,-306.08"/>
<polygon fill="black" stroke="black" points="1439.14,-309.49 1448.11,-303.85 1437.59,-302.66 1439.14,-309.49"/>
</g>
<!-- node52 -->
<g id="node3" class="node">
<title>node52</title>
<ellipse fill="none" stroke="black" cx="27.58" cy="-206.35" rx="27.65" ry="26.74"/>
<text text-anchor="middle" x="27.58" y="-210.15" font-family="Times,serif" font-size="14.00">[52]</text>
<text text-anchor="middle" x="27.58" y="-195.15" font-family="Times,serif" font-size="14.00">$t8</text>
</g>
<!-- node51&#45;&gt;node52 -->
<g id="edge1" class="edge">
<title>node51&#45;&gt;node52</title>
<path fill="none" stroke="black" d="M120.21,-270.85C103.25,-259.5 82.83,-245.74 64.58,-233.22 62.43,-231.75 60.21,-230.22 57.99,-228.68"/>
<polygon fill="black" stroke="black" points="59.65,-225.57 49.44,-222.74 55.66,-231.32 59.65,-225.57"/>
</g>
<!-- node50 -->
<g id="node4" class="node">
<title>node50</title>
<ellipse fill="none" stroke="black" cx="156.58" cy="-206.35" rx="83.38" ry="26.74"/>
<text text-anchor="middle" x="156.58" y="-210.15" font-family="Times,serif" font-size="14.00">[50]</text>
<text text-anchor="middle" x="156.58" y="-195.15" font-family="Times,serif" font-size="14.00">expresion_number</text>
</g>
<!-- node51&#45;&gt;node50 -->
<g id="edge3" class="edge">
<title>node51&#45;&gt;node50</title>
<path fill="none" stroke="black" d="M156.58,-268.77C156.58,-260.8 156.58,-251.91 156.58,-243.42"/>
<polygon fill="black" stroke="black" points="160.08,-243.35 156.58,-233.35 153.08,-243.35 160.08,-243.35"/>
</g>
<!-- node49 -->
<g id="node5" class="node">
<title>node49</title>
<ellipse fill="none" stroke="black" cx="153.58" cy="-116.61" rx="27.65" ry="26.74"/>
<text text-anchor="middle" x="153.58" y="-120.41" font-family="Times,serif" font-size="14.00">[49]</text>
<text text-anchor="middle" x="153.58" y="-105.41" font-family="Times,serif" font-size="14.00">1</text>
</g>
<!-- node50&#45;&gt;node49 -->
<g id="edge2" class="edge">
<title>node50&#45;&gt;node49</title>
<path fill="none" stroke="black" d="M155.68,-179.03C155.4,-171.06 155.1,-162.17 154.81,-153.68"/>
<polygon fill="black" stroke="black" points="158.31,-153.49 154.47,-143.61 151.31,-153.73 158.31,-153.49"/>
</g>
<!-- node59 -->
<g id="node7" class="node">
<title>node59</title>
<ellipse fill="none" stroke="black" cx="308.58" cy="-206.35" rx="28.98" ry="26.74"/>
<text text-anchor="middle" x="308.58" y="-210.15" font-family="Times,serif" font-size="14.00">[59]</text>
<text text-anchor="middle" x="308.58" y="-195.15" font-family="Times,serif" font-size="14.00">$t22</text>
</g>
<!-- node58&#45;&gt;node59 -->
<g id="edge5" class="edge">
<title>node58&#45;&gt;node59</title>
<path fill="none" stroke="black" d="M361.17,-269.71C352.17,-259.04 341.67,-246.59 332.42,-235.62"/>
<polygon fill="black" stroke="black" points="335.07,-233.34 325.95,-227.95 329.72,-237.85 335.07,-233.34"/>
</g>
<!-- node57 -->
<g id="node8" class="node">
<title>node57</title>
<ellipse fill="none" stroke="black" cx="383.58" cy="-206.35" rx="27.65" ry="26.74"/>
<text text-anchor="middle" x="383.58" y="-210.15" font-family="Times,serif" font-size="14.00">[57]</text>
<text text-anchor="middle" x="383.58" y="-195.15" font-family="Times,serif" font-size="14.00">+</text>
</g>
<!-- node58&#45;&gt;node57 -->
<g id="edge10" class="edge">
<title>node58&#45;&gt;node57</title>
<path fill="none" stroke="black" d="M382.88,-268.77C382.97,-260.8 383.07,-251.91 383.17,-243.42"/>
<polygon fill="black" stroke="black" points="386.67,-243.39 383.28,-233.35 379.67,-243.31 386.67,-243.39"/>
</g>
<!-- node54 -->
<g id="node9" class="node">
<title>node54</title>
<ellipse fill="none" stroke="black" cx="282.58" cy="-116.61" rx="83.38" ry="26.74"/>
<text text-anchor="middle" x="282.58" y="-120.41" font-family="Times,serif" font-size="14.00">[54]</text>
<text text-anchor="middle" x="282.58" y="-105.41" font-family="Times,serif" font-size="14.00">expresion_number</text>
</g>
<!-- node57&#45;&gt;node54 -->
<g id="edge7" class="edge">
<title>node57&#45;&gt;node54</title>
<path fill="none" stroke="black" d="M363.14,-187.59C350.28,-176.42 333.33,-161.7 318.29,-148.64"/>
<polygon fill="black" stroke="black" points="320.48,-145.9 310.64,-141.99 315.89,-151.19 320.48,-145.9"/>
</g>
<!-- node56 -->
<g id="node11" class="node">
<title>node56</title>
<ellipse fill="none" stroke="black" cx="467.58" cy="-116.61" rx="83.38" ry="26.74"/>
<text text-anchor="middle" x="467.58" y="-120.41" font-family="Times,serif" font-size="14.00">[56]</text>
<text text-anchor="middle" x="467.58" y="-105.41" font-family="Times,serif" font-size="14.00">expresion_number</text>
</g>
<!-- node57&#45;&gt;node56 -->
<g id="edge9" class="edge">
<title>node57&#45;&gt;node56</title>
<path fill="none" stroke="black" d="M402.22,-185.88C412.39,-175.26 425.23,-161.84 436.84,-149.72"/>
<polygon fill="black" stroke="black" points="439.48,-152.02 443.87,-142.38 434.42,-147.18 439.48,-152.02"/>
</g>
<!-- node53 -->
<g id="node10" class="node">
<title>node53</title>
<ellipse fill="none" stroke="black" cx="282.58" cy="-26.87" rx="27.65" ry="26.74"/>
<text text-anchor="middle" x="282.58" y="-30.67" font-family="Times,serif" font-size="14.00">[53]</text>
<text text-anchor="middle" x="282.58" y="-15.67" font-family="Times,serif" font-size="14.00">5</text>
</g>
<!-- node54&#45;&gt;node53 -->
<g id="edge6" class="edge">
<title>node54&#45;&gt;node53</title>
<path fill="none" stroke="black" d="M282.58,-89.29C282.58,-81.32 282.58,-72.43 282.58,-63.94"/>
<polygon fill="black" stroke="black" points="286.08,-63.87 282.58,-53.87 279.08,-63.87 286.08,-63.87"/>
</g>
<!-- node55 -->
<g id="node12" class="node">
<title>node55</title>
<ellipse fill="none" stroke="black" cx="467.58" cy="-26.87" rx="27.65" ry="26.74"/>
<text text-anchor="middle" x="467.58" y="-30.67" font-family="Times,serif" font-size="14.00">[55]</text>
<text text-anchor="middle" x="467.58" y="-15.67" font-family="Times,serif" font-size="14.00">7</text>
</g>
<!-- node56&#45;&gt;node55 -->
<g id="edge8" class="edge">
<title>node56&#45;&gt;node55</title>
<path fill="none" stroke="black" d="M467.58,-89.29C467.58,-81.32 467.58,-72.43 467.58,-63.94"/>
<polygon fill="black" stroke="black" points="471.08,-63.87 467.58,-53.87 464.08,-63.87 471.08,-63.87"/>
</g>
<!-- node63 -->
<g id="node14" class="node">
<title>node63</title>
<ellipse fill="none" stroke="black" cx="465.58" cy="-206.35" rx="28.98" ry="26.74"/>
<text text-anchor="middle" x="465.58" y="-210.15" font-family="Times,serif" font-size="14.00">[63]</text>
<text text-anchor="middle" x="465.58" y="-195.15" font-family="Times,serif" font-size="14.00">$t28</text>
</g>
<!-- node62&#45;&gt;node63 -->
<g id="edge12" class="edge">
<title>node62&#45;&gt;node63</title>
<path fill="none" stroke="black" d="M563.33,-271.05C545.06,-259.74 523.1,-245.96 503.58,-233.22 501.41,-231.81 499.19,-230.34 496.95,-228.85"/>
<polygon fill="black" stroke="black" points="498.64,-225.77 488.39,-223.09 494.73,-231.58 498.64,-225.77"/>
</g>
<!-- node61 -->
<g id="node15" class="node">
<title>node61</title>
<ellipse fill="none" stroke="black" cx="595.58" cy="-206.35" rx="83.38" ry="26.74"/>
<text text-anchor="middle" x="595.58" y="-210.15" font-family="Times,serif" font-size="14.00">[61]</text>
<text text-anchor="middle" x="595.58" y="-195.15" font-family="Times,serif" font-size="14.00">expresion_number</text>
</g>
<!-- node62&#45;&gt;node61 -->
<g id="edge14" class="edge">
<title>node62&#45;&gt;node61</title>
<path fill="none" stroke="black" d="M600.48,-268.77C599.84,-260.8 599.13,-251.91 598.45,-243.42"/>
<polygon fill="black" stroke="black" points="601.94,-243.04 597.65,-233.35 594.96,-243.6 601.94,-243.04"/>
</g>
<!-- node60 -->
<g id="node16" class="node">
<title>node60</title>
<ellipse fill="none" stroke="black" cx="597.58" cy="-116.61" rx="28.98" ry="26.74"/>
<text text-anchor="middle" x="597.58" y="-120.41" font-family="Times,serif" font-size="14.00">[60]</text>
<text text-anchor="middle" x="597.58" y="-105.41" font-family="Times,serif" font-size="14.00">$t22</text>
</g>
<!-- node61&#45;&gt;node60 -->
<g id="edge13" class="edge">
<title>node61&#45;&gt;node60</title>
<path fill="none" stroke="black" d="M596.18,-179.03C596.36,-171.06 596.56,-162.17 596.75,-153.68"/>
<polygon fill="black" stroke="black" points="600.26,-153.69 596.98,-143.61 593.26,-153.53 600.26,-153.69"/>
</g>
<!-- node65 -->
<g id="node18" class="node">
<title>node65</title>
<ellipse fill="none" stroke="black" cx="780.58" cy="-206.35" rx="83.38" ry="26.74"/>
<text text-anchor="middle" x="780.58" y="-210.15" font-family="Times,serif" font-size="14.00">[65]</text>
<text text-anchor="middle" x="780.58" y="-195.15" font-family="Times,serif" font-size="14.00">expresion_number</text>
</g>
<!-- node66&#45;&gt;node65 -->
<g id="edge17" class="edge">
<title>node66&#45;&gt;node65</title>
<path fill="none" stroke="black" d="M780.58,-268.77C780.58,-260.8 780.58,-251.91 780.58,-243.42"/>
<polygon fill="black" stroke="black" points="784.08,-243.35 780.58,-233.35 777.08,-243.35 784.08,-243.35"/>
</g>
<!-- node64 -->
<g id="node19" class="node">
<title>node64</title>
<ellipse fill="none" stroke="black" cx="735.58" cy="-116.61" rx="28.98" ry="26.74"/>
<text text-anchor="middle" x="735.58" y="-120.41" font-family="Times,serif" font-size="14.00">[64]</text>
<text text-anchor="middle" x="735.58" y="-105.41" font-family="Times,serif" font-size="14.00">$t28</text>
</g>
<!-- node65&#45;&gt;node64 -->
<g id="edge16" class="edge">
<title>node65&#45;&gt;node64</title>
<path fill="none" stroke="black" d="M767.32,-179.5C762.6,-170.31 757.23,-159.83 752.27,-150.15"/>
<polygon fill="black" stroke="black" points="755.34,-148.48 747.67,-141.18 749.12,-151.68 755.34,-148.48"/>
</g>
<!-- node73 -->
<g id="node21" class="node">
<title>node73</title>
<ellipse fill="none" stroke="black" cx="910.58" cy="-206.35" rx="28.98" ry="26.74"/>
<text text-anchor="middle" x="910.58" y="-210.15" font-family="Times,serif" font-size="14.00">[73]</text>
<text text-anchor="middle" x="910.58" y="-195.15" font-family="Times,serif" font-size="14.00">$t36</text>
</g>
<!-- node72&#45;&gt;node73 -->
<g id="edge19" class="edge">
<title>node72&#45;&gt;node73</title>
<path fill="none" stroke="black" d="M923.98,-269.24C922.2,-261.03 920.2,-251.8 918.3,-243.02"/>
<polygon fill="black" stroke="black" points="921.67,-242.05 916.14,-233.02 914.83,-243.53 921.67,-242.05"/>
</g>
<!-- node71 -->
<g id="node22" class="node">
<title>node71</title>
<ellipse fill="none" stroke="black" cx="985.58" cy="-206.35" rx="27.65" ry="26.74"/>
<text text-anchor="middle" x="985.58" y="-210.15" font-family="Times,serif" font-size="14.00">[71]</text>
<text text-anchor="middle" x="985.58" y="-195.15" font-family="Times,serif" font-size="14.00">+</text>
</g>
<!-- node72&#45;&gt;node71 -->
<g id="edge24" class="edge">
<title>node72&#45;&gt;node71</title>
<path fill="none" stroke="black" d="M946.08,-269.24C952.31,-259.47 959.47,-248.25 965.97,-238.07"/>
<polygon fill="black" stroke="black" points="969.04,-239.77 971.47,-229.46 963.14,-236 969.04,-239.77"/>
</g>
<!-- node68 -->
<g id="node23" class="node">
<title>node68</title>
<ellipse fill="none" stroke="black" cx="865.58" cy="-116.61" rx="83.38" ry="26.74"/>
<text text-anchor="middle" x="865.58" y="-120.41" font-family="Times,serif" font-size="14.00">[68]</text>
<text text-anchor="middle" x="865.58" y="-105.41" font-family="Times,serif" font-size="14.00">expresion_number</text>
</g>
<!-- node71&#45;&gt;node68 -->
<g id="edge21" class="edge">
<title>node71&#45;&gt;node68</title>
<path fill="none" stroke="black" d="M963.85,-189.46C947.96,-177.85 925.93,-161.74 906.76,-147.72"/>
<polygon fill="black" stroke="black" points="908.6,-144.73 898.46,-141.66 904.47,-150.38 908.6,-144.73"/>
</g>
<!-- node70 -->
<g id="node25" class="node">
<title>node70</title>
<ellipse fill="none" stroke="black" cx="1050.58" cy="-116.61" rx="83.38" ry="26.74"/>
<text text-anchor="middle" x="1050.58" y="-120.41" font-family="Times,serif" font-size="14.00">[70]</text>
<text text-anchor="middle" x="1050.58" y="-105.41" font-family="Times,serif" font-size="14.00">expresion_number</text>
</g>
<!-- node71&#45;&gt;node70 -->
<g id="edge23" class="edge">
<title>node71&#45;&gt;node70</title>
<path fill="none" stroke="black" d="M1001.31,-184.11C1008.62,-174.25 1017.48,-162.29 1025.66,-151.24"/>
<polygon fill="black" stroke="black" points="1028.61,-153.14 1031.75,-143.03 1022.98,-148.98 1028.61,-153.14"/>
</g>
<!-- node67 -->
<g id="node24" class="node">
<title>node67</title>
<ellipse fill="none" stroke="black" cx="865.58" cy="-26.87" rx="27.65" ry="26.74"/>
<text text-anchor="middle" x="865.58" y="-30.67" font-family="Times,serif" font-size="14.00">[67]</text>
<text text-anchor="middle" x="865.58" y="-15.67" font-family="Times,serif" font-size="14.00">1</text>
</g>
<!-- node68&#45;&gt;node67 -->
<g id="edge20" class="edge">
<title>node68&#45;&gt;node67</title>
<path fill="none" stroke="black" d="M865.58,-89.29C865.58,-81.32 865.58,-72.43 865.58,-63.94"/>
<polygon fill="black" stroke="black" points="869.08,-63.87 865.58,-53.87 862.08,-63.87 869.08,-63.87"/>
</g>
<!-- node69 -->
<g id="node26" class="node">
<title>node69</title>
<ellipse fill="none" stroke="black" cx="1050.58" cy="-26.87" rx="27.65" ry="26.74"/>
<text text-anchor="middle" x="1050.58" y="-30.67" font-family="Times,serif" font-size="14.00">[69]</text>
<text text-anchor="middle" x="1050.58" y="-15.67" font-family="Times,serif" font-size="14.00">2</text>
</g>
<!-- node70&#45;&gt;node69 -->
<g id="edge22" class="edge">
<title>node70&#45;&gt;node69</title>
<path fill="none" stroke="black" d="M1050.58,-89.29C1050.58,-81.32 1050.58,-72.43 1050.58,-63.94"/>
<polygon fill="black" stroke="black" points="1054.08,-63.87 1050.58,-53.87 1047.08,-63.87 1054.08,-63.87"/>
</g>
<!-- node75 -->
<g id="node28" class="node">
<title>node75</title>
<ellipse fill="none" stroke="black" cx="1114.58" cy="-206.35" rx="83.38" ry="26.74"/>
<text text-anchor="middle" x="1114.58" y="-210.15" font-family="Times,serif" font-size="14.00">[75]</text>
<text text-anchor="middle" x="1114.58" y="-195.15" font-family="Times,serif" font-size="14.00">expresion_number</text>
</g>
<!-- node76&#45;&gt;node75 -->
<g id="edge27" class="edge">
<title>node76&#45;&gt;node75</title>
<path fill="none" stroke="black" d="M1095.39,-269.71C1097.94,-261.4 1100.83,-252.01 1103.58,-243.08"/>
<polygon fill="black" stroke="black" points="1107,-243.87 1106.6,-233.28 1100.31,-241.81 1107,-243.87"/>
</g>
<!-- node74 -->
<g id="node29" class="node">
<title>node74</title>
<ellipse fill="none" stroke="black" cx="1180.58" cy="-116.61" rx="28.98" ry="26.74"/>
<text text-anchor="middle" x="1180.58" y="-120.41" font-family="Times,serif" font-size="14.00">[74]</text>
<text text-anchor="middle" x="1180.58" y="-105.41" font-family="Times,serif" font-size="14.00">$t36</text>
</g>
<!-- node75&#45;&gt;node74 -->
<g id="edge26" class="edge">
<title>node75&#45;&gt;node74</title>
<path fill="none" stroke="black" d="M1133.67,-179.97C1141.36,-169.75 1150.28,-157.89 1158.27,-147.27"/>
<polygon fill="black" stroke="black" points="1161.22,-149.17 1164.43,-139.07 1155.62,-144.96 1161.22,-149.17"/>
</g>
<!-- node80 -->
<g id="node31" class="node">
<title>node80</title>
<ellipse fill="none" stroke="black" cx="1244.58" cy="-206.35" rx="28.98" ry="26.74"/>
<text text-anchor="middle" x="1244.58" y="-210.15" font-family="Times,serif" font-size="14.00">[80]</text>
<text text-anchor="middle" x="1244.58" y="-195.15" font-family="Times,serif" font-size="14.00">$t38</text>
</g>
<!-- node79&#45;&gt;node80 -->
<g id="edge29" class="edge">
<title>node79&#45;&gt;node80</title>
<path fill="none" stroke="black" d="M1244.58,-268.77C1244.58,-260.8 1244.58,-251.91 1244.58,-243.42"/>
<polygon fill="black" stroke="black" points="1248.08,-243.35 1244.58,-233.35 1241.08,-243.35 1248.08,-243.35"/>
</g>
<!-- node78 -->
<g id="node32" class="node">
<title>node78</title>
<ellipse fill="none" stroke="black" cx="1374.58" cy="-206.35" rx="83.38" ry="26.74"/>
<text text-anchor="middle" x="1374.58" y="-210.15" font-family="Times,serif" font-size="14.00">[78]</text>
<text text-anchor="middle" x="1374.58" y="-195.15" font-family="Times,serif" font-size="14.00">expresion_number</text>
</g>
<!-- node79&#45;&gt;node78 -->
<g id="edge31" class="edge">
<title>node79&#45;&gt;node78</title>
<path fill="none" stroke="black" d="M1280.44,-270.88C1296.19,-260.26 1314.81,-247.69 1331.31,-236.55"/>
<polygon fill="black" stroke="black" points="1333.39,-239.37 1339.72,-230.87 1329.48,-233.57 1333.39,-239.37"/>
</g>
<!-- node77 -->
<g id="node33" class="node">
<title>node77</title>
<ellipse fill="none" stroke="black" cx="1374.58" cy="-116.61" rx="54.39" ry="26.74"/>
<text text-anchor="middle" x="1374.58" y="-120.41" font-family="Times,serif" font-size="14.00">[77]</text>
<text text-anchor="middle" x="1374.58" y="-105.41" font-family="Times,serif" font-size="14.00">como estas</text>
</g>
<!-- node78&#45;&gt;node77 -->
<g id="edge30" class="edge">
<title>node78&#45;&gt;node77</title>
<path fill="none" stroke="black" d="M1374.58,-179.03C1374.58,-171.06 1374.58,-162.17 1374.58,-153.68"/>
<polygon fill="black" stroke="black" points="1378.08,-153.61 1374.58,-143.61 1371.08,-153.61 1378.08,-153.61"/>
</g>
<!-- node82 -->
<g id="node35" class="node">
<title>node82</title>
<ellipse fill="none" stroke="black" cx="1559.58" cy="-206.35" rx="83.38" ry="26.74"/>
<text text-anchor="middle" x="1559.58" y="-210.15" font-family="Times,serif" font-size="14.00">[82]</text>
<text text-anchor="middle" x="1559.58" y="-195.15" font-family="Times,serif" font-size="14.00">expresion_number</text>
</g>
<!-- node83&#45;&gt;node82 -->
<g id="edge34" class="edge">
<title>node83&#45;&gt;node82</title>
<path fill="none" stroke="black" d="M1495.41,-275.18C1505.3,-264.73 1517.66,-251.66 1528.89,-239.79"/>
<polygon fill="black" stroke="black" points="1531.74,-241.87 1536.07,-232.2 1526.65,-237.06 1531.74,-241.87"/>
</g>
<!-- node81 -->
<g id="node36" class="node">
<title>node81</title>
<ellipse fill="none" stroke="black" cx="1559.58" cy="-116.61" rx="28.98" ry="26.74"/>
<text text-anchor="middle" x="1559.58" y="-120.41" font-family="Times,serif" font-size="14.00">[81]</text>
<text text-anchor="middle" x="1559.58" y="-105.41" font-family="Times,serif" font-size="14.00">$t38</text>
</g>
<!-- node82&#45;&gt;node81 -->
<g id="edge33" class="edge">
<title>node82&#45;&gt;node81</title>
<path fill="none" stroke="black" d="M1559.58,-179.03C1559.58,-171.06 1559.58,-162.17 1559.58,-153.68"/>
<polygon fill="black" stroke="black" points="1563.08,-153.61 1559.58,-143.61 1556.08,-153.61 1563.08,-153.61"/>
</g>
</g>
</svg>
